<svg width="269" height="269" viewBox="0 0 269 269" fill="none" xmlns="http://www.w3.org/2000/svg">
<rect width="268.624" height="268.624" rx="60" fill="#613DA2"/>
<path fill-rule="evenodd" clip-rule="evenodd" d="M143.758 145.892C169.183 99.7134 178.84 56.2466 165.326 48.8058C151.812 41.365 120.245 72.7678 94.8192 118.946C69.3935 165.124 59.7372 208.591 73.2512 216.032C86.7651 223.473 118.332 192.07 143.758 145.892ZM141.777 143.084C163.871 102.957 172.654 65.402 161.395 59.2027C150.136 53.0034 123.098 80.5072 101.004 120.634C78.91 160.761 70.1268 198.316 81.386 204.515C92.6453 210.715 119.683 183.211 141.777 143.084Z" fill="#B48BFF"/>
<path d="M208.658 132.714C202.877 110.614 178.683 98.215 157.371 106.364C157.427 91.9578 146.165 79.9452 132.922 76.147C118.518 72.0113 89.5686 82.1618 82.7109 92.2511C68.1379 113.675 97.4119 189.777 105.241 196.127C109.957 200.239 127.064 196.49 151.383 190.502C184.244 182.396 216.79 170.08 208.658 132.714Z" fill="#FFFAFA"/>
<path d="M120.042 133.361C131.818 140.409 135.652 155.671 128.605 167.447C135.652 155.671 150.915 151.837 162.691 158.885C150.915 151.837 147.081 136.575 154.128 124.798C147.081 136.575 131.818 140.409 120.042 133.361Z" fill="#B48BFF"/>
<path d="M162.615 104.779C157.986 117.565 151.627 131.598 143.757 145.892C132.234 166.821 119.449 184.715 107.654 197.333C106.654 197.053 105.846 196.655 105.242 196.128C104.851 195.811 104.407 195.32 103.917 194.671C115.693 183.786 129.498 165.384 141.777 143.084C148.942 130.07 154.708 117.327 158.843 105.837C160.094 105.416 161.352 105.064 162.615 104.779Z" fill="#B48BFF"/>
</svg>
