<svg width="765" height="280" viewBox="0 0 765 280" fill="none" xmlns="http://www.w3.org/2000/svg">
<path fill-rule="evenodd" clip-rule="evenodd" d="M172.258 164.622C212.163 92.148 227.318 23.9294 206.108 12.2515C184.899 0.573578 135.356 49.8585 95.4522 122.332C55.5481 194.806 40.393 263.025 61.6024 274.703C82.8118 286.381 132.354 237.096 172.258 164.622ZM169.15 160.216C203.825 97.2386 217.61 38.2983 199.939 28.5688C182.269 18.8393 139.834 62.0049 105.159 124.982C70.4837 187.959 56.6989 246.899 74.3696 256.629C92.0403 266.358 134.475 223.193 169.15 160.216Z" fill="#B48BFF"/>
<path d="M274.117 143.939C265.045 109.254 227.074 89.7939 193.626 102.584C193.713 79.9737 176.038 61.1206 155.254 55.1596C132.648 48.6688 87.2133 64.5995 76.4506 80.434C53.5791 114.058 99.5228 233.495 111.81 243.462C119.212 249.915 146.061 244.031 184.228 234.632C235.8 221.911 286.88 202.581 274.117 143.939Z" fill="#FFFAFA"/>
<path d="M135.039 144.954C153.521 156.015 159.539 179.968 148.478 198.451C159.539 179.968 183.492 173.951 201.974 185.012C183.492 173.951 177.475 149.998 188.535 131.515C177.475 149.998 153.521 156.015 135.039 144.954Z" fill="#B48BFF"/>
<path d="M201.853 100.096C194.588 120.163 184.608 142.187 172.257 164.62C154.171 197.467 134.106 225.551 115.596 245.354C114.025 244.914 112.758 244.29 111.809 243.463C111.196 242.965 110.498 242.195 109.73 241.176C128.211 224.093 149.878 195.212 169.149 160.213C180.394 139.789 189.443 119.79 195.934 101.755C197.896 101.095 199.872 100.543 201.853 100.096Z" fill="#B48BFF"/>
<path d="M740.397 94.9342C740.397 108.411 729.472 119.336 715.995 119.336C729.472 119.336 740.397 130.261 740.397 143.738C740.397 130.261 751.322 119.336 764.799 119.336C751.322 119.336 740.397 108.411 740.397 94.9342Z" fill="#B48BFF"/>
<path d="M350.411 206.823C346.457 206.823 343.028 205.97 340.123 204.266C337.218 202.48 334.838 200.126 332.982 197.205C331.126 194.201 329.755 190.874 328.867 187.221C327.98 183.488 327.576 179.632 327.657 175.655C327.738 171.759 328.222 167.985 329.109 164.332C330.078 160.68 331.49 157.433 333.345 154.593C335.201 151.752 337.541 149.52 340.365 147.896C343.189 146.192 346.538 145.34 350.411 145.34C353.961 145.34 357.39 146.192 360.698 147.896C364.087 149.601 367.113 151.914 369.776 154.836C372.438 157.677 374.536 160.923 376.069 164.576C377.602 168.228 378.369 172.003 378.369 175.899C378.369 179.957 377.602 183.853 376.069 187.586C374.536 191.32 372.438 194.648 369.776 197.57C367.194 200.411 364.208 202.683 360.819 204.388C357.511 206.011 354.042 206.823 350.411 206.823ZM347.506 184.908C349.12 184.908 350.572 184.502 351.863 183.69C353.235 182.879 354.324 181.824 355.131 180.525C355.938 179.145 356.341 177.684 356.341 176.142C356.341 174.519 355.938 173.058 355.131 171.759C354.405 170.379 353.356 169.324 351.984 168.594C350.693 167.782 349.241 167.376 347.627 167.376C346.013 167.376 344.521 167.782 343.149 168.594C341.858 169.405 340.809 170.46 340.002 171.759C339.276 173.058 338.913 174.519 338.913 176.142C338.913 177.684 339.316 179.145 340.123 180.525C340.93 181.824 341.979 182.879 343.27 183.69C344.561 184.502 345.973 184.908 347.506 184.908ZM327.657 206.944C324.026 206.944 321.444 206.417 319.911 205.362C318.378 204.225 317.45 202.805 317.127 201.1C316.885 199.396 316.764 197.651 316.764 195.865V128.295C316.764 126.428 316.926 124.683 317.248 123.06C317.571 121.355 318.499 119.975 320.032 118.92C321.565 117.865 324.147 117.338 327.778 117.338C331.409 117.338 333.951 117.906 335.403 119.042C336.855 120.097 337.703 121.477 337.945 123.181C338.187 124.886 338.267 126.631 338.187 128.417V200.857C337.622 202.967 336.533 204.509 334.919 205.483C333.386 206.457 330.965 206.944 327.657 206.944Z" fill="#FFFAFA"/>
<path d="M414.695 208.145C410.968 208.145 407.201 207.414 403.393 205.953C399.586 204.411 396.062 202.26 392.821 199.5C389.662 196.66 387.11 193.291 385.166 189.395C383.302 185.418 382.371 180.995 382.371 176.125C382.371 171.661 383.221 167.481 384.922 163.585C386.624 159.689 388.933 156.28 391.849 153.358C394.847 150.355 398.249 148.001 402.057 146.296C405.945 144.592 410.077 143.74 414.452 143.74C420.446 143.74 425.874 145.201 430.735 148.123C435.596 150.963 439.484 154.819 442.401 159.689C445.317 164.559 446.776 169.997 446.776 176.003C446.776 181.116 445.803 185.662 443.859 189.639C441.915 193.616 439.363 196.984 436.203 199.744C433.044 202.504 429.56 204.573 425.753 205.953C422.026 207.414 418.34 208.145 414.695 208.145ZM414.452 185.865C415.667 185.865 417.044 185.58 418.583 185.012C420.203 184.363 421.581 183.308 422.715 181.847C423.93 180.386 424.538 178.397 424.538 175.881C424.538 173.852 424.092 172.107 423.201 170.646C422.391 169.185 421.216 168.049 419.677 167.237C418.138 166.425 416.355 166.02 414.33 166.02C412.548 166.02 410.928 166.466 409.469 167.359C408.011 168.17 406.836 169.347 405.945 170.89C405.054 172.35 404.609 174.055 404.609 176.003C404.609 178.438 405.176 180.386 406.31 181.847C407.444 183.308 408.781 184.363 410.32 185.012C411.859 185.58 413.236 185.865 414.452 185.865Z" fill="#FFFAFA"/>
<path d="M462.995 206.943C459.322 206.943 456.709 206.416 455.158 205.362C453.607 204.226 452.668 202.807 452.341 201.104C452.097 199.32 451.974 197.536 451.974 195.752V156.095C451.974 154.23 452.137 152.486 452.464 150.864C452.791 149.161 453.729 147.782 455.28 146.728C456.832 145.674 459.444 145.147 463.118 145.147C466.71 145.147 469.241 145.633 470.71 146.606C472.261 147.58 473.2 148.674 473.527 149.891C473.853 151.026 474.017 151.918 474.017 152.567L472.057 151.837C472.057 151.837 472.384 151.472 473.037 150.742C473.69 150.013 474.629 149.161 475.854 148.188C477.16 147.215 478.67 146.363 480.384 145.633C482.181 144.903 484.181 144.538 486.385 144.538C487.12 144.538 488.018 144.62 489.079 144.782C490.222 144.863 491.406 145.066 492.63 145.39C493.937 145.714 495.12 146.201 496.182 146.85C497.325 147.499 498.223 148.35 498.876 149.404C499.61 150.459 499.978 151.756 499.978 153.297C499.978 157.352 499.08 160.799 497.284 163.637C495.569 166.475 493.283 167.895 490.426 167.895C488.875 167.895 487.773 167.814 487.12 167.651C486.467 167.408 485.977 167.205 485.65 167.043C485.405 166.8 485.079 166.597 484.671 166.435C484.344 166.192 483.691 166.07 482.711 166.07C481.487 166.07 480.344 166.232 479.282 166.557C478.303 166.8 477.405 167.205 476.588 167.773C475.854 168.341 475.282 169.03 474.874 169.841C474.466 170.571 474.262 171.382 474.262 172.274V195.995C474.262 197.779 474.098 199.523 473.772 201.226C473.445 202.929 472.506 204.308 470.955 205.362C469.404 206.416 466.751 206.943 462.995 206.943Z" fill="#FFFAFA"/>
<path d="M548.562 206.545C544.929 206.545 542.225 205.94 540.448 204.731C538.753 203.521 537.946 202.15 538.026 200.618H539.722C539.318 201.183 538.511 201.949 537.3 202.916C536.169 203.803 534.635 204.65 532.698 205.456C530.76 206.182 528.378 206.545 525.553 206.545C521.92 206.545 518.408 205.739 515.017 204.126C511.707 202.433 508.719 200.134 506.055 197.231C503.472 194.328 501.413 191.063 499.879 187.434C498.345 183.724 497.578 179.854 497.578 175.822C497.578 171.871 498.345 168.081 499.879 164.452C501.413 160.823 503.512 157.597 506.176 154.775C508.84 151.872 511.828 149.614 515.138 148.001C518.448 146.308 521.92 145.461 525.553 145.461C528.298 145.461 530.599 145.865 532.456 146.671C534.393 147.477 535.927 148.364 537.057 149.332C538.269 150.3 539.076 151.106 539.48 151.751H538.147C538.067 149.735 538.874 148.163 540.569 147.034C542.346 145.905 545.05 145.34 548.683 145.34C552.316 145.34 554.86 145.905 556.313 147.034C557.847 148.082 558.775 149.453 559.098 151.146C559.421 152.84 559.583 154.574 559.583 156.348V195.659C559.583 197.433 559.421 199.167 559.098 200.86C558.775 202.554 557.847 203.924 556.313 204.973C554.86 206.021 552.276 206.545 548.562 206.545ZM528.58 184.652C530.114 184.652 531.487 184.249 532.698 183.442C533.99 182.636 534.999 181.587 535.725 180.297C536.533 178.926 536.936 177.475 536.936 175.943C536.936 174.33 536.533 172.879 535.725 171.588C534.999 170.298 533.99 169.25 532.698 168.443C531.406 167.637 529.953 167.234 528.338 167.234C526.723 167.234 525.23 167.637 523.857 168.443C522.565 169.25 521.516 170.338 520.709 171.709C519.901 172.999 519.498 174.451 519.498 176.064C519.498 177.596 519.901 179.007 520.709 180.297C521.597 181.587 522.727 182.636 524.099 183.442C525.472 184.249 526.966 184.652 528.58 184.652Z" fill="#FFFAFA"/>
<path d="M615.768 206.545C612.135 206.545 609.43 205.94 607.654 204.731C605.958 203.521 605.151 202.15 605.232 200.618H606.927C606.524 201.183 605.716 201.949 604.505 202.916C603.375 203.803 601.841 204.65 599.903 205.456C597.966 206.182 595.584 206.545 592.758 206.545C589.125 206.545 585.613 205.739 582.222 204.126C578.912 202.433 575.925 200.134 573.261 197.231C570.677 194.328 568.618 191.063 567.084 187.434C565.55 183.724 564.783 179.854 564.783 175.822C564.783 171.871 565.55 168.081 567.084 164.452C568.618 160.823 570.717 157.597 573.382 154.775C576.046 151.872 579.033 149.614 582.343 148.001C585.654 146.308 589.125 145.461 592.758 145.461C595.503 145.461 597.804 145.865 599.661 146.671C601.599 147.477 603.133 148.364 604.263 149.332C605.474 150.3 606.281 151.106 606.685 151.751H605.353C605.272 149.735 606.08 148.163 607.775 147.034C609.551 145.905 612.256 145.34 615.889 145.34C619.522 145.34 622.065 145.905 623.518 147.034C625.052 148.082 625.981 149.453 626.304 151.146C626.627 152.84 626.788 154.574 626.788 156.348V195.659C626.788 197.433 626.627 199.167 626.304 200.86C625.981 202.554 625.052 203.924 623.518 204.973C622.065 206.021 619.482 206.545 615.768 206.545ZM595.786 184.652C597.32 184.652 598.692 184.249 599.903 183.442C601.195 182.636 602.204 181.587 602.931 180.297C603.738 178.926 604.142 177.475 604.142 175.943C604.142 174.33 603.738 172.879 602.931 171.588C602.204 170.298 601.195 169.25 599.903 168.443C598.612 167.637 597.158 167.234 595.544 167.234C593.929 167.234 592.435 167.637 591.063 168.443C589.771 169.25 588.721 170.338 587.914 171.709C587.107 172.999 586.703 174.451 586.703 176.064C586.703 177.596 587.107 179.007 587.914 180.297C588.802 181.587 589.933 182.636 591.305 183.442C592.678 184.249 594.171 184.652 595.786 184.652Z" fill="#FFFAFA"/>
<path d="M644.896 206.944C641.26 206.944 638.674 206.416 637.139 205.36C635.604 204.223 634.675 202.802 634.351 201.097C634.109 199.391 633.988 197.645 633.988 195.859V156.024C633.988 154.157 634.149 152.411 634.473 150.786C634.796 149.081 635.725 147.7 637.26 146.645C638.796 145.589 641.422 145.061 645.139 145.061C648.775 145.061 651.401 145.792 653.017 147.254C654.714 148.634 655.562 150.908 655.562 154.075L653.502 153.466C653.502 153.466 653.785 153.06 654.35 152.248C654.997 151.355 655.885 150.34 657.017 149.203C658.229 148.066 659.683 147.091 661.38 146.279C663.077 145.386 665.016 144.939 667.198 144.939C669.703 144.939 672.006 145.264 674.107 145.914C676.208 146.563 678.106 147.578 679.803 148.959C681.581 150.258 683.116 151.883 684.409 153.832C685.298 152.776 686.51 151.558 688.045 150.177C689.58 148.797 691.399 147.578 693.499 146.523C695.681 145.467 698.105 144.939 700.772 144.939C705.539 144.939 709.579 146.157 712.892 148.594C716.286 151.03 718.831 154.563 720.528 159.192C722.306 163.821 723.195 169.424 723.195 176.002V195.859C723.195 197.645 723.033 199.391 722.71 201.097C722.387 202.802 721.457 204.223 719.922 205.36C718.387 206.416 715.761 206.944 712.044 206.944C708.408 206.944 705.822 206.375 704.287 205.238C702.751 204.101 701.822 202.68 701.499 200.975C701.257 199.269 701.135 197.523 701.135 195.737V175.881C701.135 173.931 700.893 172.348 700.408 171.13C700.004 169.83 699.358 168.856 698.469 168.206C697.661 167.556 696.61 167.232 695.317 167.232C693.944 167.232 692.813 167.516 691.924 168.084C691.116 168.653 690.51 169.587 690.106 170.886C689.782 172.104 689.621 173.81 689.621 176.002V195.859C689.621 197.645 689.459 199.391 689.136 201.097C688.813 202.802 687.884 204.223 686.348 205.36C684.813 206.416 682.187 206.944 678.47 206.944C674.834 206.944 672.248 206.375 670.713 205.238C669.178 204.101 668.248 202.68 667.925 200.975C667.683 199.269 667.562 197.523 667.562 195.737V175.881C667.562 173.931 667.36 172.307 666.956 171.008C666.552 169.709 665.905 168.775 665.016 168.206C664.208 167.556 663.117 167.232 661.744 167.232C660.128 167.232 658.916 167.638 658.108 168.45C657.3 169.262 656.734 170.318 656.411 171.617C656.168 172.916 656.047 174.338 656.047 175.881V195.98C656.047 197.767 655.885 199.513 655.562 201.218C655.239 202.924 654.31 204.304 652.775 205.36C651.239 206.416 648.613 206.944 644.896 206.944Z" fill="#FFFAFA"/>
<path d="M740.536 206.945C736.889 206.945 734.296 206.418 732.756 205.364C731.216 204.23 730.285 202.811 729.96 201.109C729.717 199.407 729.596 197.664 729.596 195.881V156.245C729.596 154.461 729.758 152.759 730.082 151.138C730.406 149.436 731.338 148.058 732.878 147.004C734.417 145.87 737.011 145.302 740.657 145.302C744.304 145.302 746.857 145.87 748.315 147.004C749.855 148.058 750.787 149.436 751.111 151.138C751.435 152.84 751.597 154.624 751.597 156.488V196.002C751.597 197.786 751.435 199.528 751.111 201.23C750.787 202.933 749.855 204.311 748.315 205.364C746.857 206.418 744.263 206.945 740.536 206.945Z" fill="#FFFAFA"/>
</svg>
